<svg id="visual" viewBox="0 0 900 600" width="900" height="600" xmlns="http://www.w3.org/2000/svg" xmlns:xlink="http://www.w3.org/1999/xlink" version="1.1"><rect x="0" y="0" width="900" height="600" fill="#002233"></rect><path d="M0 518L21.5 523C43 528 86 538 128.8 541.8C171.7 545.7 214.3 543.3 257.2 538.5C300 533.7 343 526.3 385.8 517.2C428.7 508 471.3 497 514.2 489C557 481 600 476 642.8 472.8C685.7 469.7 728.3 468.3 771.2 477.8C814 487.3 857 507.7 878.5 517.8L900 528L900 601L878.5 601C857 601 814 601 771.2 601C728.3 601 685.7 601 642.8 601C600 601 557 601 514.2 601C471.3 601 428.7 601 385.8 601C343 601 300 601 257.2 601C214.3 601 171.7 601 128.8 601C86 601 43 601 21.5 601L0 601Z" fill="#FFFFFF" stroke-linecap="round" stroke-linejoin="miter"></path></svg>