<svg id="visual" viewBox="0 0 900 600" width="900" height="600" xmlns="http://www.w3.org/2000/svg" xmlns:xlink="http://www.w3.org/1999/xlink" version="1.1"><rect x="0" y="0" width="900" height="600" fill="#002233"></rect><path d="M0 290L16.7 291.8C33.3 293.7 66.7 297.3 100 299.3C133.3 301.3 166.7 301.7 200 314.2C233.3 326.7 266.7 351.3 300 368.7C333.3 386 366.7 396 400 391.2C433.3 386.3 466.7 366.7 500 352.3C533.3 338 566.7 329 600 326.2C633.3 323.3 666.7 326.7 700 337.7C733.3 348.7 766.7 367.3 800 382.3C833.3 397.3 866.7 408.7 883.3 414.3L900 420L900 601L883.3 601C866.7 601 833.3 601 800 601C766.7 601 733.3 601 700 601C666.7 601 633.3 601 600 601C566.7 601 533.3 601 500 601C466.7 601 433.3 601 400 601C366.7 601 333.3 601 300 601C266.7 601 233.3 601 200 601C166.7 601 133.3 601 100 601C66.7 601 33.3 601 16.7 601L0 601Z" fill="#FFFFFF" stroke-linecap="round" stroke-linejoin="miter"></path></svg>